<svg width="25" height="25" viewBox="0 0 25 25" fill="none" xmlns="http://www.w3.org/2000/svg">
<path d="M13.3215 12.0512L16.1965 14.8762C16.3465 15.0262 16.4215 15.2054 16.4215 15.4137C16.4215 15.6221 16.3465 15.8012 16.1965 15.9512C16.0465 16.1012 15.8715 16.1762 15.6715 16.1762C15.4715 16.1762 15.2965 16.1012 15.1465 15.9512L12.0465 12.9012C11.9631 12.8179 11.9048 12.7304 11.8715 12.6387C11.8381 12.5471 11.8215 12.4512 11.8215 12.3512V8.07625C11.8215 7.85958 11.8923 7.68041 12.034 7.53874C12.1756 7.39708 12.3548 7.32625 12.5715 7.32625C12.7881 7.32625 12.9673 7.39708 13.109 7.53874C13.2506 7.68041 13.3215 7.85958 13.3215 8.07625V12.0512ZM12.4465 21.4012C10.1131 21.4012 8.13396 20.6512 6.50896 19.1512C4.88396 17.6512 3.91313 15.7762 3.59646 13.5262C3.56313 13.2929 3.60896 13.0929 3.73396 12.9262C3.85896 12.7596 4.03813 12.6679 4.27146 12.6512C4.47146 12.6346 4.64646 12.6971 4.79646 12.8387C4.94646 12.9804 5.03813 13.1512 5.07146 13.3512C5.3548 15.2179 6.17146 16.7762 7.52146 18.0262C8.87146 19.2762 10.5131 19.9012 12.4465 19.9012C14.5631 19.9012 16.3548 19.1596 17.8215 17.6762C19.2881 16.1929 20.0215 14.3929 20.0215 12.2762C20.0215 10.2096 19.2798 8.46375 17.7965 7.03874C16.3131 5.61374 14.5298 4.90125 12.4465 4.90125C11.3131 4.90125 10.2506 5.15958 9.25896 5.67625C8.2673 6.19291 7.4048 6.87625 6.67146 7.72624H8.54646C8.76313 7.72624 8.9423 7.79708 9.08396 7.93875C9.22563 8.08041 9.29646 8.25958 9.29646 8.47624C9.29646 8.69291 9.22563 8.87208 9.08396 9.01375C8.9423 9.15541 8.76313 9.22624 8.54646 9.22624H4.82146C4.6048 9.22624 4.42563 9.15541 4.28396 9.01375C4.1423 8.87208 4.07146 8.69291 4.07146 8.47624V4.77625C4.07146 4.55958 4.1423 4.38041 4.28396 4.23875C4.42563 4.09708 4.6048 4.02625 4.82146 4.02625C5.03813 4.02625 5.2173 4.09708 5.35896 4.23875C5.50063 4.38041 5.57146 4.55958 5.57146 4.77625V6.67625C6.43813 5.65958 7.4673 4.85958 8.65896 4.27625C9.85063 3.69291 11.1131 3.40125 12.4465 3.40125C13.6965 3.40125 14.8715 3.63458 15.9715 4.10125C17.0715 4.56791 18.034 5.20541 18.859 6.01375C19.684 6.82208 20.334 7.76791 20.809 8.85124C21.284 9.93458 21.5215 11.1012 21.5215 12.3512C21.5215 13.6012 21.284 14.7762 20.809 15.8762C20.334 16.9762 19.684 17.9346 18.859 18.7512C18.034 19.5679 17.0715 20.2137 15.9715 20.6887C14.8715 21.1637 13.6965 21.4012 12.4465 21.4012Z" fill="black"/>
</svg>
