<svg width="25" height="25" viewBox="0 0 25 25" fill="none" xmlns="http://www.w3.org/2000/svg">
<path d="M12.2715 3.40125C7.30273 3.40125 3.27148 7.4325 3.27148 12.4012C3.27148 17.37 7.30273 21.4012 12.2715 21.4012C17.2402 21.4012 21.2715 17.37 21.2715 12.4012C21.2715 7.4325 17.2402 3.40125 12.2715 3.40125Z" stroke="black" stroke-width="1.5" stroke-miterlimit="10"/>
<path d="M12.2715 6.57587V18.2267" stroke="black" stroke-width="1.5" stroke-linecap="round" stroke-linejoin="round"/>
<path d="M14.9194 8.69415H10.9475C10.4559 8.69415 9.98449 8.88944 9.63688 9.23704C9.28928 9.58465 9.09399 10.0561 9.09399 10.5477C9.09399 11.0393 9.28928 11.5107 9.63688 11.8583C9.98449 12.2059 10.4559 12.4012 10.9475 12.4012H13.5954C14.087 12.4012 14.5585 12.5965 14.9061 12.9441C15.2537 13.2917 15.449 13.7632 15.449 14.2548C15.449 14.7463 15.2537 15.2178 14.9061 15.5654C14.5585 15.913 14.087 16.1083 13.5954 16.1083H9.09399" stroke="black" stroke-width="1.5" stroke-linecap="round" stroke-linejoin="round"/>
</svg>
