<svg width="19" height="19" viewBox="0 0 19 19" fill="none" xmlns="http://www.w3.org/2000/svg">
<path d="M10.3215 9.05124L13.1965 11.8762C13.3465 12.0262 13.4215 12.2054 13.4215 12.4137C13.4215 12.6221 13.3465 12.8012 13.1965 12.9512C13.0465 13.1012 12.8715 13.1762 12.6715 13.1762C12.4715 13.1762 12.2965 13.1012 12.1465 12.9512L9.04646 9.90125C8.96313 9.81791 8.9048 9.73041 8.87146 9.63875C8.83813 9.54708 8.82146 9.45124 8.82146 9.35124V5.07625C8.82146 4.85958 8.8923 4.68041 9.03396 4.53874C9.17563 4.39708 9.3548 4.32625 9.57146 4.32625C9.78813 4.32625 9.9673 4.39708 10.109 4.53874C10.2506 4.68041 10.3215 4.85958 10.3215 5.07625V9.05124ZM9.44646 18.4012C7.11313 18.4012 5.13396 17.6512 3.50896 16.1512C1.88396 14.6512 0.91313 12.7762 0.596464 10.5262C0.56313 10.2929 0.608964 10.0929 0.733964 9.92624C0.858964 9.75958 1.03813 9.66791 1.27146 9.65125C1.47146 9.63458 1.64646 9.69708 1.79646 9.83875C1.94646 9.98041 2.03813 10.1512 2.07146 10.3512C2.3548 12.2179 3.17146 13.7762 4.52146 15.0262C5.87146 16.2762 7.51313 16.9012 9.44646 16.9012C11.5631 16.9012 13.3548 16.1596 14.8215 14.6762C16.2881 13.1929 17.0215 11.3929 17.0215 9.27625C17.0215 7.20958 16.2798 5.46374 14.7965 4.03874C13.3131 2.61374 11.5298 1.90125 9.44646 1.90125C8.31313 1.90125 7.25063 2.15958 6.25896 2.67625C5.2673 3.19291 4.4048 3.87624 3.67146 4.72624H5.54646C5.76313 4.72624 5.9423 4.79708 6.08396 4.93875C6.22563 5.08041 6.29646 5.25958 6.29646 5.47624C6.29646 5.69291 6.22563 5.87208 6.08396 6.01375C5.9423 6.15541 5.76313 6.22624 5.54646 6.22624H1.82146C1.6048 6.22624 1.42563 6.15541 1.28396 6.01375C1.1423 5.87208 1.07146 5.69291 1.07146 5.47624V1.77625C1.07146 1.55958 1.1423 1.38041 1.28396 1.23875C1.42563 1.09708 1.6048 1.02625 1.82146 1.02625C2.03813 1.02625 2.2173 1.09708 2.35896 1.23875C2.50063 1.38041 2.57146 1.55958 2.57146 1.77625V3.67625C3.43813 2.65958 4.4673 1.85958 5.65896 1.27625C6.85063 0.692912 8.11313 0.401245 9.44646 0.401245C10.6965 0.401245 11.8715 0.634578 12.9715 1.10125C14.0715 1.56791 15.034 2.20541 15.859 3.01375C16.684 3.82208 17.334 4.76791 17.809 5.85124C18.284 6.93458 18.5215 8.10124 18.5215 9.35124C18.5215 10.6012 18.284 11.7762 17.809 12.8762C17.334 13.9762 16.684 14.9346 15.859 15.7512C15.034 16.5679 14.0715 17.2137 12.9715 17.6887C11.8715 18.1637 10.6965 18.4012 9.44646 18.4012Z" fill="#E81C62"/>
</svg>
